<svg id="Layer_1" fill="#63FDD8" enable-background="new 0 0 511.999 511.999" height="512" viewBox="0 0 511.999 511.999" width="512" xmlns="http://www.w3.org/2000/svg"><g><path d="m356.523 295.576c40.901-31.503 64.359-79.138 64.359-130.692 0-38.253-13.397-75.531-37.724-104.968-2.639-3.193-7.365-3.642-10.559-1.003-3.193 2.639-3.643 7.366-1.004 10.559 22.109 26.754 34.286 60.639 34.286 95.412 0 46.864-21.327 90.168-58.512 118.808-10.192 7.85-16.038 19.637-16.038 32.338v15.303h-150.664v-15.301c0-12.7-5.854-24.493-16.059-32.356-37.684-29.033-58.999-72.94-58.481-120.461.443-40.837 16.83-78.758 46.142-106.778 29.353-28.061 68.031-42.753 108.947-41.347 32.959 1.126 63.888 12.737 89.442 33.579 3.212 2.62 7.935 2.138 10.553-1.072 2.617-3.21 2.138-7.935-1.072-10.552-28.117-22.931-62.146-35.707-98.411-36.946-44.934-1.524-87.527 14.62-119.825 45.496-32.255 30.835-50.287 72.548-50.776 117.458-.286 26.368 5.47 51.621 17.108 75.059 11.086 22.324 27.414 42.189 47.219 57.447 6.49 5.001 10.213 12.463 10.213 20.474v16.504c-9.608 3.16-16.566 12.212-16.566 22.864s6.958 19.704 16.566 22.863v61.103c0 19.832 14.692 36.291 33.763 39.078 3.361 19.04 20.014 33.554 40.004 33.554h33.133c19.99 0 36.643-14.514 40.004-33.554 19.07-2.788 33.763-19.247 33.763-39.078v-61.103c9.608-3.16 16.566-12.212 16.566-22.863 0-10.652-6.958-19.704-16.566-22.864v-16.506c-.001-8.012 3.714-15.467 10.189-20.455zm-83.957 201.423h-33.133c-11.525 0-21.3-7.647-24.515-18.133h82.162c-3.214 10.486-12.989 18.133-24.514 18.133zm34.267-33.133h-1.133-99.4-1.133c-11.308 0-20.846-7.702-23.656-18.133h148.978c-2.811 10.432-12.349 18.133-23.656 18.133zm24.5-33.133h-150.666v-18.133h150.666zm16.566-75.333c0 4.999-4.067 9.066-9.066 9.066h-110.9c-4.143 0-7.5 3.358-7.5 7.5s3.357 7.5 7.5 7.5h103.4v18.134h-150.666v-18.133h17.351c4.143 0 7.5-3.358 7.5-7.5s-3.357-7.5-7.5-7.5h-24.851c-4.999 0-9.066-4.067-9.066-9.066 0-5 4.067-9.067 9.066-9.067h165.666c4.999-.001 9.066 4.067 9.066 9.066z"/><path d="m64.701 164.884c0-4.142-3.357-7.5-7.5-7.5h-33.134c-4.143 0-7.5 3.358-7.5 7.5s3.357 7.5 7.5 7.5h33.134c4.142 0 7.5-3.358 7.5-7.5z"/><path d="m80.085 257.788-28.695 16.567c-3.587 2.071-4.816 6.658-2.745 10.245 1.39 2.406 3.91 3.751 6.502 3.751 1.272 0 2.563-.324 3.743-1.006l28.694-16.567c3.587-2.071 4.816-6.658 2.745-10.245-2.072-3.587-6.659-4.817-10.244-2.745z"/><path d="m460.609 274.355-28.694-16.567c-3.59-2.073-8.175-.843-10.245 2.745-2.071 3.587-.842 8.174 2.745 10.245l28.694 16.567c1.182.682 2.471 1.006 3.743 1.006 2.592 0 5.113-1.345 6.502-3.751 2.071-3.587.842-8.174-2.745-10.245z"/><path d="m487.932 157.384h-33.134c-4.142 0-7.5 3.358-7.5 7.5s3.358 7.5 7.5 7.5h33.134c4.143 0 7.5-3.358 7.5-7.5s-3.357-7.5-7.5-7.5z"/><path d="m428.172 72.986c1.272 0 2.563-.324 3.743-1.006l28.694-16.566c3.587-2.071 4.816-6.658 2.745-10.245-2.07-3.587-6.659-4.816-10.245-2.745l-28.694 16.566c-3.587 2.071-4.816 6.658-2.745 10.245 1.388 2.405 3.91 3.751 6.502 3.751z"/><path d="m51.39 55.413 28.694 16.566c1.182.682 2.471 1.006 3.743 1.006 2.592 0 5.113-1.346 6.502-3.752 2.071-3.587.842-8.174-2.745-10.245l-28.694-16.565c-3.59-2.072-8.175-.842-10.245 2.745-2.071 3.587-.842 8.174 2.745 10.245z"/><path d="m256 140.817c-13.27 0-24.066 10.796-24.066 24.067 0 13.27 10.796 24.066 24.066 24.066 13.271 0 24.066-10.796 24.066-24.066s-10.796-24.067-24.066-24.067zm0 33.133c-4.999 0-9.066-4.067-9.066-9.066s4.067-9.067 9.066-9.067 9.066 4.067 9.066 9.067c0 4.999-4.067 9.066-9.066 9.066z"/><path d="m256 107.684c-31.54 0-57.2 25.66-57.2 57.2s25.66 57.2 57.2 57.2 57.2-25.66 57.2-57.2-25.66-57.2-57.2-57.2zm0 99.4c-23.27 0-42.2-18.931-42.2-42.2s18.931-42.2 42.2-42.2 42.2 18.931 42.2 42.2-18.931 42.2-42.2 42.2z"/><path d="m367.953 193.8c6.671-1.335 11.513-7.24 11.513-14.043v-29.745c0-6.803-4.842-12.709-11.513-14.043l-13.932-2.786c-1.688-5.222-3.794-10.306-6.295-15.191l7.883-11.824c3.774-5.661 3.021-13.261-1.789-18.071l-21.033-21.033c-4.814-4.811-12.413-5.562-18.07-1.789l-11.824 7.882c-4.885-2.501-9.969-4.607-15.19-6.294l-2.786-13.932c-1.334-6.671-7.24-11.513-14.044-11.513h-29.744c-6.804 0-12.71 4.842-14.044 11.513l-2.786 13.932c-5.222 1.688-10.306 3.793-15.19 6.294l-11.823-7.882c-5.66-3.773-13.26-3.022-18.072 1.789l-21.034 21.032c-4.812 4.81-5.564 12.41-1.79 18.071l7.883 11.824c-2.501 4.885-4.607 9.969-6.295 15.191l-13.932 2.786c-6.671 1.334-11.513 7.24-11.513 14.043v29.745c0 6.803 4.842 12.709 11.513 14.043l13.932 2.786c1.688 5.223 3.794 10.306 6.295 15.191l-7.883 11.824c-3.774 5.661-3.021 13.261 1.789 18.071l21.033 21.033c4.811 4.81 12.41 5.564 18.07 1.789l11.824-7.883c4.886 2.501 9.968 4.607 15.19 6.295l2.786 13.932c1.334 6.671 7.24 11.513 14.044 11.513h29.744c6.804 0 12.71-4.842 14.044-11.513l2.786-13.932c5.223-1.688 10.305-3.794 15.19-6.295l11.823 7.883c5.661 3.774 13.26 3.021 18.072-1.79l21.031-21.032c4.812-4.81 5.565-12.41 1.79-18.071l-7.883-11.824c2.501-4.885 4.607-9.968 6.295-15.191zm-21.298-11.038c-2.784.557-5.016 2.639-5.764 5.378-1.939 7.097-4.773 13.934-8.422 20.321-1.408 2.466-1.304 5.517.273 7.88l10.078 15.117-20.246 20.247-15.117-10.078c-2.363-1.577-5.415-1.68-7.88-.273-6.388 3.648-13.225 6.482-20.321 8.421-2.739.749-4.821 2.98-5.378 5.764l-3.561 17.811h-28.633l-3.562-17.811c-.557-2.784-2.639-5.016-5.378-5.764-7.097-1.939-13.934-4.772-20.321-8.421-2.466-1.408-5.518-1.304-7.88.273l-15.117 10.078-20.246-20.247 10.078-15.117c1.576-2.363 1.681-5.414.273-7.88-3.648-6.387-6.482-13.224-8.422-20.321-.748-2.739-2.979-4.82-5.764-5.378l-17.811-3.562v-28.632l17.811-3.562c2.784-.557 5.016-2.639 5.764-5.378 1.939-7.097 4.773-13.934 8.422-20.322 1.408-2.466 1.303-5.517-.273-7.88l-10.079-15.116 20.246-20.246 15.117 10.078c2.365 1.577 5.414 1.68 7.88.273 6.388-3.649 13.225-6.482 20.321-8.42 2.739-.749 4.821-2.979 5.378-5.764l3.562-17.812h28.633l3.561 17.812c.557 2.785 2.639 5.016 5.378 5.764 7.097 1.939 13.934 4.772 20.321 8.42 2.465 1.407 5.516 1.304 7.88-.273l15.117-10.078 20.247 20.246-10.078 15.117c-1.575 2.363-1.681 5.413-.273 7.88 3.648 6.388 6.482 13.225 8.422 20.322.748 2.739 2.979 4.82 5.764 5.378l17.81 3.562v28.631z"/></g></svg>
