<svg width="257" height="55" viewBox="0 0 257 55" fill="none" xmlns="http://www.w3.org/2000/svg">
<path d="M38.9263 42.822H14.7763L10.0153 54H0.769258L22.5043 5.7H31.3363L53.1403 54H43.7563L38.9263 42.822ZM35.9593 35.784L26.8513 14.67L17.8123 35.784H35.9593ZM75.023 54.483C71.205 54.483 67.778 53.678 64.742 52.068C61.706 50.458 59.337 48.227 57.635 45.375C55.933 42.477 55.082 39.211 55.082 35.577C55.082 31.943 55.933 28.7 57.635 25.848C59.337 22.996 61.683 20.765 64.673 19.155C67.709 17.545 71.159 16.74 75.023 16.74C78.657 16.74 81.831 17.476 84.545 18.948C87.305 20.42 89.375 22.536 90.755 25.296L84.131 29.16C83.073 27.458 81.739 26.193 80.129 25.365C78.565 24.491 76.84 24.054 74.954 24.054C71.734 24.054 69.066 25.112 66.95 27.228C64.834 29.298 63.776 32.081 63.776 35.577C63.776 39.073 64.811 41.879 66.881 43.995C68.997 46.065 71.688 47.1 74.954 47.1C76.84 47.1 78.565 46.686 80.129 45.858C81.739 44.984 83.073 43.696 84.131 41.994L90.755 45.858C89.329 48.618 87.236 50.757 84.476 52.275C81.762 53.747 78.611 54.483 75.023 54.483ZM114.577 54.483C110.759 54.483 107.332 53.678 104.296 52.068C101.26 50.458 98.8907 48.227 97.1887 45.375C95.4867 42.477 94.6357 39.211 94.6357 35.577C94.6357 31.943 95.4867 28.7 97.1887 25.848C98.8907 22.996 101.237 20.765 104.227 19.155C107.263 17.545 110.713 16.74 114.577 16.74C118.211 16.74 121.385 17.476 124.099 18.948C126.859 20.42 128.929 22.536 130.309 25.296L123.685 29.16C122.627 27.458 121.293 26.193 119.683 25.365C118.119 24.491 116.394 24.054 114.508 24.054C111.288 24.054 108.62 25.112 106.504 27.228C104.388 29.298 103.33 32.081 103.33 35.577C103.33 39.073 104.365 41.879 106.435 43.995C108.551 46.065 111.242 47.1 114.508 47.1C116.394 47.1 118.119 46.686 119.683 45.858C121.293 44.984 122.627 43.696 123.685 41.994L130.309 45.858C128.883 48.618 126.79 50.757 124.03 52.275C121.316 53.747 118.165 54.483 114.577 54.483ZM173.437 17.154V54H165.226V49.308C163.846 50.964 162.121 52.252 160.051 53.172C157.981 54.046 155.75 54.483 153.358 54.483C148.436 54.483 144.549 53.126 141.697 50.412C138.891 47.652 137.488 43.581 137.488 38.199V17.154H146.113V37.026C146.113 40.338 146.849 42.822 148.321 44.478C149.839 46.088 151.978 46.893 154.738 46.893C157.82 46.893 160.258 45.95 162.052 44.064C163.892 42.132 164.812 39.372 164.812 35.784V17.154H173.437ZM219.368 35.784C219.368 36.382 219.322 37.233 219.23 38.337H190.319C190.825 41.051 192.136 43.213 194.252 44.823C196.414 46.387 199.082 47.169 202.256 47.169C206.304 47.169 209.639 45.835 212.261 43.167L216.884 48.48C215.228 50.458 213.135 51.953 210.605 52.965C208.075 53.977 205.223 54.483 202.049 54.483C198.001 54.483 194.436 53.678 191.354 52.068C188.272 50.458 185.88 48.227 184.178 45.375C182.522 42.477 181.694 39.211 181.694 35.577C181.694 31.989 182.499 28.769 184.109 25.917C185.765 23.019 188.042 20.765 190.94 19.155C193.838 17.545 197.104 16.74 200.738 16.74C204.326 16.74 207.523 17.545 210.329 19.155C213.181 20.719 215.389 22.95 216.953 25.848C218.563 28.7 219.368 32.012 219.368 35.784ZM200.738 23.64C197.978 23.64 195.632 24.468 193.7 26.124C191.814 27.734 190.664 29.896 190.25 32.61H211.157C210.789 29.942 209.662 27.78 207.776 26.124C205.89 24.468 203.544 23.64 200.738 23.64ZM227.653 17.154H236.278V54H227.653V17.154ZM232 11.082C230.436 11.082 229.125 10.599 228.067 9.633C227.009 8.621 226.48 7.379 226.48 5.907C226.48 4.435 227.009 3.216 228.067 2.25C229.125 1.238 230.436 0.731999 232 0.731999C233.564 0.731999 234.875 1.215 235.933 2.181C236.991 3.101 237.52 4.274 237.52 5.7C237.52 7.218 236.991 8.506 235.933 9.564C234.921 10.576 233.61 11.082 232 11.082ZM247.598 2.802H256.223V54H247.598V2.802Z" fill="#63FDD8"/>
</svg>
