<svg width="489" height="66" viewBox="0 0 489 66" fill="none" xmlns="http://www.w3.org/2000/svg">
<path d="M26.0241 52.69C21.1481 52.69 16.7321 51.632 12.7761 49.516C8.86613 47.354 5.78413 44.387 3.53013 40.615C1.32213 36.843 0.218129 32.588 0.218129 27.85C0.218129 23.112 1.34513 18.857 3.59913 15.085C5.85313 11.313 8.93513 8.369 12.8451 6.253C16.8011 4.091 21.2171 3.01 26.0931 3.01C30.0491 3.01 33.6601 3.7 36.9261 5.08C40.1921 6.46 42.9521 8.461 45.2061 11.083L39.4101 16.534C35.9141 12.762 31.6131 10.876 26.5071 10.876C23.1951 10.876 20.2281 11.612 17.6061 13.084C14.9841 14.51 12.9371 16.511 11.4651 19.087C9.99313 21.663 9.25713 24.584 9.25713 27.85C9.25713 31.116 9.99313 34.037 11.4651 36.613C12.9371 39.189 14.9841 41.213 17.6061 42.685C20.2281 44.111 23.1951 44.824 26.5071 44.824C31.6131 44.824 35.9141 42.915 39.4101 39.097L45.2061 44.617C42.9521 47.239 40.1691 49.24 36.8571 50.62C33.5911 52 29.9801 52.69 26.0241 52.69ZM68.1853 52.483C64.4593 52.483 61.1013 51.678 58.1113 50.068C55.1213 48.458 52.7753 46.227 51.0733 43.375C49.4173 40.477 48.5893 37.211 48.5893 33.577C48.5893 29.943 49.4173 26.7 51.0733 23.848C52.7753 20.996 55.1213 18.765 58.1113 17.155C61.1013 15.545 64.4593 14.74 68.1853 14.74C71.9573 14.74 75.3383 15.545 78.3283 17.155C81.3183 18.765 83.6413 20.996 85.2973 23.848C86.9993 26.7 87.8503 29.943 87.8503 33.577C87.8503 37.211 86.9993 40.477 85.2973 43.375C83.6413 46.227 81.3183 48.458 78.3283 50.068C75.3383 51.678 71.9573 52.483 68.1853 52.483ZM68.1853 45.1C71.3593 45.1 73.9813 44.042 76.0513 41.926C78.1213 39.81 79.1563 37.027 79.1563 33.577C79.1563 30.127 78.1213 27.344 76.0513 25.228C73.9813 23.112 71.3593 22.054 68.1853 22.054C65.0113 22.054 62.3893 23.112 60.3193 25.228C58.2953 27.344 57.2833 30.127 57.2833 33.577C57.2833 37.027 58.2953 39.81 60.3193 41.926C62.3893 44.042 65.0113 45.1 68.1853 45.1ZM142.604 14.74C147.25 14.74 150.93 16.097 153.644 18.811C156.358 21.479 157.715 25.504 157.715 30.886V52H149.09V31.99C149.09 28.77 148.377 26.355 146.951 24.745C145.525 23.089 143.478 22.261 140.81 22.261C137.912 22.261 135.589 23.227 133.841 25.159C132.093 27.045 131.219 29.759 131.219 33.301V52H122.594V31.99C122.594 28.77 121.881 26.355 120.455 24.745C119.029 23.089 116.982 22.261 114.314 22.261C111.37 22.261 109.024 23.204 107.276 25.09C105.574 26.976 104.723 29.713 104.723 33.301V52H96.0979V15.154H104.309V19.846C105.689 18.19 107.414 16.925 109.484 16.051C111.554 15.177 113.854 14.74 116.384 14.74C119.144 14.74 121.582 15.269 123.698 16.327C125.86 17.339 127.562 18.857 128.804 20.881C130.322 18.949 132.277 17.454 134.669 16.396C137.061 15.292 139.706 14.74 142.604 14.74ZM189.161 14.74C192.749 14.74 195.946 15.522 198.752 17.086C201.604 18.65 203.835 20.858 205.445 23.71C207.055 26.562 207.86 29.851 207.86 33.577C207.86 37.303 207.055 40.615 205.445 43.513C203.835 46.365 201.604 48.573 198.752 50.137C195.946 51.701 192.749 52.483 189.161 52.483C184.193 52.483 180.26 50.827 177.362 47.515V65.386H168.737V15.154H176.948V19.984C178.374 18.236 180.122 16.925 182.192 16.051C184.308 15.177 186.631 14.74 189.161 14.74ZM188.195 45.1C191.369 45.1 193.968 44.042 195.992 41.926C198.062 39.81 199.097 37.027 199.097 33.577C199.097 30.127 198.062 27.344 195.992 25.228C193.968 23.112 191.369 22.054 188.195 22.054C186.125 22.054 184.262 22.537 182.606 23.503C180.95 24.423 179.639 25.757 178.673 27.505C177.707 29.253 177.224 31.277 177.224 33.577C177.224 35.877 177.707 37.901 178.673 39.649C179.639 41.397 180.95 42.754 182.606 43.72C184.262 44.64 186.125 45.1 188.195 45.1ZM250.677 33.784C250.677 34.382 250.631 35.233 250.539 36.337H221.628C222.134 39.051 223.445 41.213 225.561 42.823C227.723 44.387 230.391 45.169 233.565 45.169C237.613 45.169 240.948 43.835 243.57 41.167L248.193 46.48C246.537 48.458 244.444 49.953 241.914 50.965C239.384 51.977 236.532 52.483 233.358 52.483C229.31 52.483 225.745 51.678 222.663 50.068C219.581 48.458 217.189 46.227 215.487 43.375C213.831 40.477 213.003 37.211 213.003 33.577C213.003 29.989 213.808 26.769 215.418 23.917C217.074 21.019 219.351 18.765 222.249 17.155C225.147 15.545 228.413 14.74 232.047 14.74C235.635 14.74 238.832 15.545 241.638 17.155C244.49 18.719 246.698 20.95 248.262 23.848C249.872 26.7 250.677 30.012 250.677 33.784ZM232.047 21.64C229.287 21.64 226.941 22.468 225.009 24.124C223.123 25.734 221.973 27.896 221.559 30.61H242.466C242.098 27.942 240.971 25.78 239.085 24.124C237.199 22.468 234.853 21.64 232.047 21.64ZM235.359 0.663999H245.502L233.496 10.117H226.044L235.359 0.663999ZM281.111 49.999C280.099 50.827 278.857 51.448 277.385 51.862C275.959 52.276 274.441 52.483 272.831 52.483C268.783 52.483 265.655 51.425 263.447 49.309C261.239 47.193 260.135 44.111 260.135 40.063V22.33H254.063V15.43H260.135V7.012H268.76V15.43H278.627V22.33H268.76V39.856C268.76 41.65 269.197 43.03 270.071 43.996C270.945 44.916 272.21 45.376 273.866 45.376C275.798 45.376 277.408 44.87 278.696 43.858L281.111 49.999ZM321.631 33.784C321.631 34.382 321.585 35.233 321.493 36.337H292.582C293.088 39.051 294.399 41.213 296.515 42.823C298.677 44.387 301.345 45.169 304.519 45.169C308.567 45.169 311.902 43.835 314.524 41.167L319.147 46.48C317.491 48.458 315.398 49.953 312.868 50.965C310.338 51.977 307.486 52.483 304.312 52.483C300.264 52.483 296.699 51.678 293.617 50.068C290.535 48.458 288.143 46.227 286.441 43.375C284.785 40.477 283.957 37.211 283.957 33.577C283.957 29.989 284.762 26.769 286.372 23.917C288.028 21.019 290.305 18.765 293.203 17.155C296.101 15.545 299.367 14.74 303.001 14.74C306.589 14.74 309.786 15.545 312.592 17.155C315.444 18.719 317.652 20.95 319.216 23.848C320.826 26.7 321.631 30.012 321.631 33.784ZM303.001 21.64C300.241 21.64 297.895 22.468 295.963 24.124C294.077 25.734 292.927 27.896 292.513 30.61H313.42C313.052 27.942 311.925 25.78 310.039 24.124C308.153 22.468 305.807 21.64 303.001 21.64ZM350.823 14.74C355.469 14.74 359.195 16.097 362.001 18.811C364.807 21.525 366.21 25.55 366.21 30.886V52H357.585V31.99C357.585 28.77 356.826 26.355 355.308 24.745C353.79 23.089 351.628 22.261 348.822 22.261C345.648 22.261 343.141 23.227 341.301 25.159C339.461 27.045 338.541 29.782 338.541 33.37V52H329.916V15.154H338.127V19.915C339.553 18.213 341.347 16.925 343.509 16.051C345.671 15.177 348.109 14.74 350.823 14.74ZM394.394 52.483C390.576 52.483 387.149 51.678 384.113 50.068C381.077 48.458 378.708 46.227 377.006 43.375C375.304 40.477 374.453 37.211 374.453 33.577C374.453 29.943 375.304 26.7 377.006 23.848C378.708 20.996 381.054 18.765 384.044 17.155C387.08 15.545 390.53 14.74 394.394 14.74C398.028 14.74 401.202 15.476 403.916 16.948C406.676 18.42 408.746 20.536 410.126 23.296L403.502 27.16C402.444 25.458 401.11 24.193 399.5 23.365C397.936 22.491 396.211 22.054 394.325 22.054C391.105 22.054 388.437 23.112 386.321 25.228C384.205 27.298 383.147 30.081 383.147 33.577C383.147 37.073 384.182 39.879 386.252 41.995C388.368 44.065 391.059 45.1 394.325 45.1C396.211 45.1 397.936 44.686 399.5 43.858C401.11 42.984 402.444 41.696 403.502 39.994L410.126 43.858C408.7 46.618 406.607 48.757 403.847 50.275C401.133 51.747 397.982 52.483 394.394 52.483ZM451.68 33.784C451.68 34.382 451.634 35.233 451.542 36.337H422.631C423.137 39.051 424.448 41.213 426.564 42.823C428.726 44.387 431.394 45.169 434.568 45.169C438.616 45.169 441.951 43.835 444.573 41.167L449.196 46.48C447.54 48.458 445.447 49.953 442.917 50.965C440.387 51.977 437.535 52.483 434.361 52.483C430.313 52.483 426.748 51.678 423.666 50.068C420.584 48.458 418.192 46.227 416.49 43.375C414.834 40.477 414.006 37.211 414.006 33.577C414.006 29.989 414.811 26.769 416.421 23.917C418.077 21.019 420.354 18.765 423.252 17.155C426.15 15.545 429.416 14.74 433.05 14.74C436.638 14.74 439.835 15.545 442.641 17.155C445.493 18.719 447.701 20.95 449.265 23.848C450.875 26.7 451.68 30.012 451.68 33.784ZM433.05 21.64C430.29 21.64 427.944 22.468 426.012 24.124C424.126 25.734 422.976 27.896 422.562 30.61H443.469C443.101 27.942 441.974 25.78 440.088 24.124C438.202 22.468 435.856 21.64 433.05 21.64ZM471.35 52.483C468.36 52.483 465.439 52.092 462.587 51.31C459.735 50.528 457.458 49.539 455.756 48.343L459.068 41.788C460.724 42.892 462.702 43.789 465.002 44.479C467.348 45.123 469.648 45.445 471.902 45.445C477.054 45.445 479.63 44.088 479.63 41.374C479.63 40.086 478.963 39.189 477.629 38.683C476.341 38.177 474.248 37.694 471.35 37.234C468.314 36.774 465.83 36.245 463.898 35.647C462.012 35.049 460.356 34.014 458.93 32.542C457.55 31.024 456.86 28.931 456.86 26.263C456.86 22.767 458.309 19.984 461.207 17.914C464.151 15.798 468.107 14.74 473.075 14.74C475.605 14.74 478.135 15.039 480.665 15.637C483.195 16.189 485.265 16.948 486.875 17.914L483.563 24.469C480.435 22.629 476.916 21.709 473.006 21.709C470.476 21.709 468.544 22.1 467.21 22.882C465.922 23.618 465.278 24.607 465.278 25.849C465.278 27.229 465.968 28.218 467.348 28.816C468.774 29.368 470.959 29.897 473.903 30.403C476.847 30.863 479.262 31.392 481.148 31.99C483.034 32.588 484.644 33.6 485.978 35.026C487.358 36.452 488.048 38.476 488.048 41.098C488.048 44.548 486.553 47.308 483.563 49.378C480.573 51.448 476.502 52.483 471.35 52.483Z" fill="#63FDD8"/>
</svg>
