<svg width="278" height="50" viewBox="0 0 278 50" fill="none" xmlns="http://www.w3.org/2000/svg">
<path d="M25.9445 49.69C21.0685 49.69 16.6525 48.632 12.6965 46.516C8.78654 44.354 5.70454 41.387 3.45054 37.615C1.24254 33.843 0.138539 29.588 0.138539 24.85C0.138539 20.112 1.26554 15.857 3.51954 12.085C5.77354 8.313 8.85554 5.369 12.7655 3.253C16.7215 1.091 21.1375 0.00999737 26.0135 0.00999737C29.9695 0.00999737 33.5805 0.699998 36.8465 2.08C40.1125 3.46 42.8725 5.461 45.1265 8.083L39.3305 13.534C35.8345 9.762 31.5335 7.876 26.4275 7.876C23.1155 7.876 20.1485 8.612 17.5265 10.084C14.9045 11.51 12.8575 13.511 11.3855 16.087C9.91354 18.663 9.17754 21.584 9.17754 24.85C9.17754 28.116 9.91354 31.037 11.3855 33.613C12.8575 36.189 14.9045 38.213 17.5265 39.685C20.1485 41.111 23.1155 41.824 26.4275 41.824C31.5335 41.824 35.8345 39.915 39.3305 36.097L45.1265 41.617C42.8725 44.239 40.0895 46.24 36.7775 47.62C33.5115 49 29.9005 49.69 25.9445 49.69ZM68.1057 49.483C64.3797 49.483 61.0217 48.678 58.0317 47.068C55.0417 45.458 52.6957 43.227 50.9937 40.375C49.3377 37.477 48.5097 34.211 48.5097 30.577C48.5097 26.943 49.3377 23.7 50.9937 20.848C52.6957 17.996 55.0417 15.765 58.0317 14.155C61.0217 12.545 64.3797 11.74 68.1057 11.74C71.8777 11.74 75.2587 12.545 78.2487 14.155C81.2387 15.765 83.5617 17.996 85.2177 20.848C86.9197 23.7 87.7707 26.943 87.7707 30.577C87.7707 34.211 86.9197 37.477 85.2177 40.375C83.5617 43.227 81.2387 45.458 78.2487 47.068C75.2587 48.678 71.8777 49.483 68.1057 49.483ZM68.1057 42.1C71.2797 42.1 73.9017 41.042 75.9717 38.926C78.0417 36.81 79.0767 34.027 79.0767 30.577C79.0767 27.127 78.0417 24.344 75.9717 22.228C73.9017 20.112 71.2797 19.054 68.1057 19.054C64.9317 19.054 62.3097 20.112 60.2397 22.228C58.2157 24.344 57.2037 27.127 57.2037 30.577C57.2037 34.027 58.2157 36.81 60.2397 38.926C62.3097 41.042 64.9317 42.1 68.1057 42.1ZM116.925 11.74C121.571 11.74 125.297 13.097 128.103 15.811C130.909 18.525 132.312 22.55 132.312 27.886V49H123.687V28.99C123.687 25.77 122.928 23.355 121.41 21.745C119.892 20.089 117.73 19.261 114.924 19.261C111.75 19.261 109.243 20.227 107.403 22.159C105.563 24.045 104.643 26.782 104.643 30.37V49H96.0184V12.154H104.229V16.915C105.655 15.213 107.449 13.925 109.611 13.051C111.773 12.177 114.211 11.74 116.925 11.74ZM165.403 46.999C164.391 47.827 163.149 48.448 161.677 48.862C160.251 49.276 158.733 49.483 157.123 49.483C153.075 49.483 149.947 48.425 147.739 46.309C145.531 44.193 144.427 41.111 144.427 37.063V19.33H138.355V12.43H144.427V4.012H153.052V12.43H162.919V19.33H153.052V36.856C153.052 38.65 153.489 40.03 154.363 40.996C155.237 41.916 156.502 42.376 158.158 42.376C160.09 42.376 161.7 41.87 162.988 40.858L165.403 46.999ZM186.574 11.74C192.002 11.74 196.142 13.051 198.994 15.673C201.892 18.249 203.341 22.159 203.341 27.403V49H195.199V44.515C194.141 46.125 192.623 47.367 190.645 48.241C188.713 49.069 186.367 49.483 183.607 49.483C180.847 49.483 178.432 49.023 176.362 48.103C174.292 47.137 172.682 45.826 171.532 44.17C170.428 42.468 169.876 40.559 169.876 38.443C169.876 35.131 171.095 32.486 173.533 30.508C176.017 28.484 179.904 27.472 185.194 27.472H194.716V26.92C194.716 24.344 193.934 22.366 192.37 20.986C190.852 19.606 188.575 18.916 185.539 18.916C183.469 18.916 181.422 19.238 179.398 19.882C177.42 20.526 175.741 21.423 174.361 22.573L170.98 16.294C172.912 14.822 175.235 13.695 177.949 12.913C180.663 12.131 183.538 11.74 186.574 11.74ZM185.401 43.204C187.563 43.204 189.472 42.721 191.128 41.755C192.83 40.743 194.026 39.317 194.716 37.477V33.199H185.815C180.847 33.199 178.363 34.832 178.363 38.098C178.363 39.662 178.984 40.904 180.226 41.824C181.468 42.744 183.193 43.204 185.401 43.204ZM231.652 49.483C227.834 49.483 224.407 48.678 221.371 47.068C218.335 45.458 215.966 43.227 214.264 40.375C212.562 37.477 211.711 34.211 211.711 30.577C211.711 26.943 212.562 23.7 214.264 20.848C215.966 17.996 218.312 15.765 221.302 14.155C224.338 12.545 227.788 11.74 231.652 11.74C235.286 11.74 238.46 12.476 241.174 13.948C243.934 15.42 246.004 17.536 247.384 20.296L240.76 24.16C239.702 22.458 238.368 21.193 236.758 20.365C235.194 19.491 233.469 19.054 231.583 19.054C228.363 19.054 225.695 20.112 223.579 22.228C221.463 24.298 220.405 27.081 220.405 30.577C220.405 34.073 221.44 36.879 223.51 38.995C225.626 41.065 228.317 42.1 231.583 42.1C233.469 42.1 235.194 41.686 236.758 40.858C238.368 39.984 239.702 38.696 240.76 36.994L247.384 40.858C245.958 43.618 243.865 45.757 241.105 47.275C238.391 48.747 235.24 49.483 231.652 49.483ZM277.46 46.999C276.448 47.827 275.206 48.448 273.734 48.862C272.308 49.276 270.79 49.483 269.18 49.483C265.132 49.483 262.004 48.425 259.796 46.309C257.588 44.193 256.484 41.111 256.484 37.063V19.33H250.412V12.43H256.484V4.012H265.109V12.43H274.976V19.33H265.109V36.856C265.109 38.65 265.546 40.03 266.42 40.996C267.294 41.916 268.559 42.376 270.215 42.376C272.147 42.376 273.757 41.87 275.045 40.858L277.46 46.999Z" fill="#63FDD8"/>
</svg>
