<svg width="400" height="55" viewBox="0 0 400 55" fill="none" xmlns="http://www.w3.org/2000/svg">
<path d="M9.45991 13.221V27.918H32.7819V35.508H9.45991V54H0.489907V5.7H35.7489V13.221H9.45991ZM59.1448 54.483C55.4188 54.483 52.0608 53.678 49.0708 52.068C46.0808 50.458 43.7348 48.227 42.0328 45.375C40.3768 42.477 39.5488 39.211 39.5488 35.577C39.5488 31.943 40.3768 28.7 42.0328 25.848C43.7348 22.996 46.0808 20.765 49.0708 19.155C52.0608 17.545 55.4188 16.74 59.1448 16.74C62.9168 16.74 66.2978 17.545 69.2878 19.155C72.2778 20.765 74.6008 22.996 76.2568 25.848C77.9588 28.7 78.8098 31.943 78.8098 35.577C78.8098 39.211 77.9588 42.477 76.2568 45.375C74.6008 48.227 72.2778 50.458 69.2878 52.068C66.2978 53.678 62.9168 54.483 59.1448 54.483ZM59.1448 47.1C62.3188 47.1 64.9408 46.042 67.0108 43.926C69.0808 41.81 70.1158 39.027 70.1158 35.577C70.1158 32.127 69.0808 29.344 67.0108 27.228C64.9408 25.112 62.3188 24.054 59.1448 24.054C55.9708 24.054 53.3488 25.112 51.2788 27.228C49.2548 29.344 48.2428 32.127 48.2428 35.577C48.2428 39.027 49.2548 41.81 51.2788 43.926C53.3488 46.042 55.9708 47.1 59.1448 47.1ZM95.2684 22.536C97.7524 18.672 102.122 16.74 108.378 16.74V24.951C107.642 24.813 106.975 24.744 106.377 24.744C103.019 24.744 100.397 25.733 98.5114 27.711C96.6254 29.643 95.6824 32.449 95.6824 36.129V54H87.0574V17.154H95.2684V22.536ZM162.201 16.74C166.847 16.74 170.527 18.097 173.241 20.811C175.955 23.479 177.312 27.504 177.312 32.886V54H168.687V33.99C168.687 30.77 167.974 28.355 166.548 26.745C165.122 25.089 163.075 24.261 160.407 24.261C157.509 24.261 155.186 25.227 153.438 27.159C151.69 29.045 150.816 31.759 150.816 35.301V54H142.191V33.99C142.191 30.77 141.478 28.355 140.052 26.745C138.626 25.089 136.579 24.261 133.911 24.261C130.967 24.261 128.621 25.204 126.873 27.09C125.171 28.976 124.32 31.713 124.32 35.301V54H115.695V17.154H123.906V21.846C125.286 20.19 127.011 18.925 129.081 18.051C131.151 17.177 133.451 16.74 135.981 16.74C138.741 16.74 141.179 17.269 143.295 18.327C145.457 19.339 147.159 20.857 148.401 22.881C149.919 20.949 151.874 19.454 154.266 18.396C156.658 17.292 159.303 16.74 162.201 16.74ZM202.41 16.74C207.838 16.74 211.978 18.051 214.83 20.673C217.728 23.249 219.177 27.159 219.177 32.403V54H211.035V49.515C209.977 51.125 208.459 52.367 206.481 53.241C204.549 54.069 202.203 54.483 199.443 54.483C196.683 54.483 194.268 54.023 192.198 53.103C190.128 52.137 188.518 50.826 187.368 49.17C186.264 47.468 185.712 45.559 185.712 43.443C185.712 40.131 186.931 37.486 189.369 35.508C191.853 33.484 195.74 32.472 201.03 32.472H210.552V31.92C210.552 29.344 209.77 27.366 208.206 25.986C206.688 24.606 204.411 23.916 201.375 23.916C199.305 23.916 197.258 24.238 195.234 24.882C193.256 25.526 191.577 26.423 190.197 27.573L186.816 21.294C188.748 19.822 191.071 18.695 193.785 17.913C196.499 17.131 199.374 16.74 202.41 16.74ZM201.237 48.204C203.399 48.204 205.308 47.721 206.964 46.755C208.666 45.743 209.862 44.317 210.552 42.477V38.199H201.651C196.683 38.199 194.199 39.832 194.199 43.098C194.199 44.662 194.82 45.904 196.062 46.824C197.304 47.744 199.029 48.204 201.237 48.204ZM252.395 51.999C251.383 52.827 250.141 53.448 248.669 53.862C247.243 54.276 245.725 54.483 244.115 54.483C240.067 54.483 236.939 53.425 234.731 51.309C232.523 49.193 231.419 46.111 231.419 42.063V24.33H225.347V17.43H231.419V9.012H240.044V17.43H249.911V24.33H240.044V41.856C240.044 43.65 240.481 45.03 241.355 45.996C242.229 46.916 243.494 47.376 245.15 47.376C247.082 47.376 248.692 46.87 249.98 45.858L252.395 51.999ZM259.49 17.154H268.115V54H259.49V17.154ZM263.837 11.082C262.273 11.082 260.962 10.599 259.904 9.633C258.846 8.621 258.317 7.379 258.317 5.907C258.317 4.435 258.846 3.216 259.904 2.25C260.962 1.238 262.273 0.731999 263.837 0.731999C265.401 0.731999 266.712 1.215 267.77 2.181C268.828 3.101 269.357 4.274 269.357 5.7C269.357 7.218 268.828 8.506 267.77 9.564C266.758 10.576 265.447 11.082 263.837 11.082ZM295.995 54.483C292.269 54.483 288.911 53.678 285.921 52.068C282.931 50.458 280.585 48.227 278.883 45.375C277.227 42.477 276.399 39.211 276.399 35.577C276.399 31.943 277.227 28.7 278.883 25.848C280.585 22.996 282.931 20.765 285.921 19.155C288.911 17.545 292.269 16.74 295.995 16.74C299.767 16.74 303.148 17.545 306.138 19.155C309.128 20.765 311.451 22.996 313.107 25.848C314.809 28.7 315.66 31.943 315.66 35.577C315.66 39.211 314.809 42.477 313.107 45.375C311.451 48.227 309.128 50.458 306.138 52.068C303.148 53.678 299.767 54.483 295.995 54.483ZM295.995 47.1C299.169 47.1 301.791 46.042 303.861 43.926C305.931 41.81 306.966 39.027 306.966 35.577C306.966 32.127 305.931 29.344 303.861 27.228C301.791 25.112 299.169 24.054 295.995 24.054C292.821 24.054 290.199 25.112 288.129 27.228C286.105 29.344 285.093 32.127 285.093 35.577C285.093 39.027 286.105 41.81 288.129 43.926C290.199 46.042 292.821 47.1 295.995 47.1ZM344.815 16.74C349.461 16.74 353.187 18.097 355.993 20.811C358.799 23.525 360.202 27.55 360.202 32.886V54H351.577V33.99C351.577 30.77 350.818 28.355 349.3 26.745C347.782 25.089 345.62 24.261 342.814 24.261C339.64 24.261 337.133 25.227 335.293 27.159C333.453 29.045 332.533 31.782 332.533 35.37V54H323.908V17.154H332.119V21.915C333.545 20.213 335.339 18.925 337.501 18.051C339.663 17.177 342.101 16.74 344.815 16.74ZM382.528 54.483C379.538 54.483 376.617 54.092 373.765 53.31C370.913 52.528 368.636 51.539 366.934 50.343L370.246 43.788C371.902 44.892 373.88 45.789 376.18 46.479C378.526 47.123 380.826 47.445 383.08 47.445C388.232 47.445 390.808 46.088 390.808 43.374C390.808 42.086 390.141 41.189 388.807 40.683C387.519 40.177 385.426 39.694 382.528 39.234C379.492 38.774 377.008 38.245 375.076 37.647C373.19 37.049 371.534 36.014 370.108 34.542C368.728 33.024 368.038 30.931 368.038 28.263C368.038 24.767 369.487 21.984 372.385 19.914C375.329 17.798 379.285 16.74 384.253 16.74C386.783 16.74 389.313 17.039 391.843 17.637C394.373 18.189 396.443 18.948 398.053 19.914L394.741 26.469C391.613 24.629 388.094 23.709 384.184 23.709C381.654 23.709 379.722 24.1 378.388 24.882C377.1 25.618 376.456 26.607 376.456 27.849C376.456 29.229 377.146 30.218 378.526 30.816C379.952 31.368 382.137 31.897 385.081 32.403C388.025 32.863 390.44 33.392 392.326 33.99C394.212 34.588 395.822 35.6 397.156 37.026C398.536 38.452 399.226 40.476 399.226 43.098C399.226 46.548 397.731 49.308 394.741 51.378C391.751 53.448 387.68 54.483 382.528 54.483Z" fill="#63FDD8"/>
</svg>
