<svg width="243" height="68" viewBox="0 0 243 68" fill="none" xmlns="http://www.w3.org/2000/svg">
<path d="M20.4303 5.7C24.6163 5.7 28.2503 6.39 31.3323 7.77C34.4603 9.15 36.8523 11.128 38.5083 13.704C40.1643 16.28 40.9923 19.339 40.9923 22.881C40.9923 26.377 40.1643 29.436 38.5083 32.058C36.8523 34.634 34.4603 36.612 31.3323 37.992C28.2503 39.372 24.6163 40.062 20.4303 40.062H9.52827V54H0.558266V5.7H20.4303ZM20.0163 32.472C23.9263 32.472 26.8933 31.644 28.9173 29.988C30.9413 28.332 31.9533 25.963 31.9533 22.881C31.9533 19.799 30.9413 17.43 28.9173 15.774C26.8933 14.118 23.9263 13.29 20.0163 13.29H9.52827V32.472H20.0163ZM56.996 22.536C59.48 18.672 63.85 16.74 70.106 16.74V24.951C69.37 24.813 68.703 24.744 68.105 24.744C64.747 24.744 62.125 25.733 60.239 27.711C58.353 29.643 57.41 32.449 57.41 36.129V54H48.785V17.154H56.996V22.536ZM93.6457 54.483C89.9197 54.483 86.5617 53.678 83.5717 52.068C80.5817 50.458 78.2357 48.227 76.5337 45.375C74.8777 42.477 74.0497 39.211 74.0497 35.577C74.0497 31.943 74.8777 28.7 76.5337 25.848C78.2357 22.996 80.5817 20.765 83.5717 19.155C86.5617 17.545 89.9197 16.74 93.6457 16.74C97.4177 16.74 100.799 17.545 103.789 19.155C106.779 20.765 109.102 22.996 110.758 25.848C112.46 28.7 113.311 31.943 113.311 35.577C113.311 39.211 112.46 42.477 110.758 45.375C109.102 48.227 106.779 50.458 103.789 52.068C100.799 53.678 97.4177 54.483 93.6457 54.483ZM93.6457 47.1C96.8197 47.1 99.4417 46.042 101.512 43.926C103.582 41.81 104.617 39.027 104.617 35.577C104.617 32.127 103.582 29.344 101.512 27.228C99.4417 25.112 96.8197 24.054 93.6457 24.054C90.4717 24.054 87.8497 25.112 85.7797 27.228C83.7557 29.344 82.7437 32.127 82.7437 35.577C82.7437 39.027 83.7557 41.81 85.7797 43.926C87.8497 46.042 90.4717 47.1 93.6457 47.1ZM117.763 67.869C114.129 67.869 111.369 67.156 109.483 65.73L111.967 59.313C113.255 60.279 114.934 60.762 117.004 60.762C118.614 60.762 119.833 60.256 120.661 59.244C121.535 58.278 121.972 56.829 121.972 54.897V17.154H130.597V54.69C130.597 58.784 129.47 62.004 127.216 64.35C124.962 66.696 121.811 67.869 117.763 67.869ZM126.25 11.082C124.686 11.082 123.375 10.599 122.317 9.633C121.259 8.621 120.73 7.379 120.73 5.907C120.73 4.435 121.259 3.216 122.317 2.25C123.375 1.238 124.686 0.731999 126.25 0.731999C127.814 0.731999 129.125 1.215 130.183 2.181C131.241 3.101 131.77 4.274 131.77 5.7C131.77 7.218 131.241 8.506 130.183 9.564C129.171 10.576 127.86 11.082 126.25 11.082ZM176.546 35.784C176.546 36.382 176.5 37.233 176.408 38.337H147.497C148.003 41.051 149.314 43.213 151.43 44.823C153.592 46.387 156.26 47.169 159.434 47.169C163.482 47.169 166.817 45.835 169.439 43.167L174.062 48.48C172.406 50.458 170.313 51.953 167.783 52.965C165.253 53.977 162.401 54.483 159.227 54.483C155.179 54.483 151.614 53.678 148.532 52.068C145.45 50.458 143.058 48.227 141.356 45.375C139.7 42.477 138.872 39.211 138.872 35.577C138.872 31.989 139.677 28.769 141.287 25.917C142.943 23.019 145.22 20.765 148.118 19.155C151.016 17.545 154.282 16.74 157.916 16.74C161.504 16.74 164.701 17.545 167.507 19.155C170.359 20.719 172.567 22.95 174.131 25.848C175.741 28.7 176.546 32.012 176.546 35.784ZM157.916 23.64C155.156 23.64 152.81 24.468 150.878 26.124C148.992 27.734 147.842 29.896 147.428 32.61H168.335C167.967 29.942 166.84 27.78 164.954 26.124C163.068 24.468 160.722 23.64 157.916 23.64ZM206.98 51.999C205.968 52.827 204.726 53.448 203.254 53.862C201.828 54.276 200.31 54.483 198.7 54.483C194.652 54.483 191.524 53.425 189.316 51.309C187.108 49.193 186.004 46.111 186.004 42.063V24.33H179.932V17.43H186.004V9.012H194.629V17.43H204.496V24.33H194.629V41.856C194.629 43.65 195.066 45.03 195.94 45.996C196.814 46.916 198.079 47.376 199.735 47.376C201.667 47.376 203.277 46.87 204.565 45.858L206.98 51.999ZM225.46 54.483C222.47 54.483 219.549 54.092 216.697 53.31C213.845 52.528 211.568 51.539 209.866 50.343L213.178 43.788C214.834 44.892 216.812 45.789 219.112 46.479C221.458 47.123 223.758 47.445 226.012 47.445C231.164 47.445 233.74 46.088 233.74 43.374C233.74 42.086 233.073 41.189 231.739 40.683C230.451 40.177 228.358 39.694 225.46 39.234C222.424 38.774 219.94 38.245 218.008 37.647C216.122 37.049 214.466 36.014 213.04 34.542C211.66 33.024 210.97 30.931 210.97 28.263C210.97 24.767 212.419 21.984 215.317 19.914C218.261 17.798 222.217 16.74 227.185 16.74C229.715 16.74 232.245 17.039 234.775 17.637C237.305 18.189 239.375 18.948 240.985 19.914L237.673 26.469C234.545 24.629 231.026 23.709 227.116 23.709C224.586 23.709 222.654 24.1 221.32 24.882C220.032 25.618 219.388 26.607 219.388 27.849C219.388 29.229 220.078 30.218 221.458 30.816C222.884 31.368 225.069 31.897 228.013 32.403C230.957 32.863 233.372 33.392 235.258 33.99C237.144 34.588 238.754 35.6 240.088 37.026C241.468 38.452 242.158 40.476 242.158 43.098C242.158 46.548 240.663 49.308 237.673 51.378C234.683 53.448 230.612 54.483 225.46 54.483Z" fill="#63FDD8"/>
</svg>
